HIERARCHY
ROOT pelvis
{
	OFFSET 0.003123 -0.351407 0.012037
	CHANNELS 6 Xposition Yposition Zposition Zrotation Yrotation Xrotation 
	JOINT left_hip
	{
		OFFSET 0.058189 -0.092763 -0.026001
		CHANNELS 3 Zrotation Yrotation Xrotation
		JOINT left_knee
		{
			OFFSET 0.054695 -0.378753 -0.009396
			CHANNELS 3 Zrotation Yrotation Xrotation
			JOINT left_ankle
			{
				OFFSET -0.043453 -0.403059 -0.031876
				CHANNELS 3 Zrotation Yrotation Xrotation
				JOINT left_foot
				{
					OFFSET 0.047257 -0.057997 0.118216
					CHANNELS 3 Zrotation Yrotation Xrotation
					End Site
					{
						OFFSET 0.000000 0.000000 0.000000
					}
				}
			}
		}
	}
	JOINT right_hip
	{
		OFFSET -0.063267 -0.103908 -0.021250
		CHANNELS 3 Zrotation Yrotation Xrotation
		JOINT right_knee
		{
			OFFSET -0.044210 -0.362380 -0.016824
			CHANNELS 3 Zrotation Yrotation Xrotation
			JOINT right_ankle
			{
				OFFSET 0.015417 -0.410728 -0.020192
				CHANNELS 3 Zrotation Yrotation Xrotation
				JOINT right_foot
				{
					OFFSET -0.038812 -0.058328 0.119049
					CHANNELS 3 Zrotation Yrotation Xrotation
					End Site
					{
						OFFSET 0.000000 0.000000 0.000000
					}
				}
			}
		}
	}
	JOINT spine_1
	{
		OFFSET -0.002763 0.109891 -0.027618
		CHANNELS 3 Zrotation Yrotation Xrotation
		JOINT spine_2
		{
			OFFSET 0.009448 0.131853 -0.005940
			CHANNELS 3 Zrotation Yrotation Xrotation
			JOINT spine_3
			{
				OFFSET -0.011330 0.052235 0.028447
				CHANNELS 3 Zrotation Yrotation Xrotation
				JOINT neck
				{
					OFFSET -0.012164 0.165167 -0.031615
					CHANNELS 3 Zrotation Yrotation Xrotation
					JOINT head
					{
						OFFSET 0.024783 0.160452 0.020737
						CHANNELS 3 Zrotation Yrotation Xrotation
						End Site
						{
							OFFSET 0.000000 0.000000 0.000000
						}
					}
				}
				JOINT left_collar
				{
					OFFSET 0.046364 0.084944 -0.007220
					CHANNELS 3 Zrotation Yrotation Xrotation
					JOINT left_shoulder
					{
						OFFSET 0.119239 0.057728 -0.015461
						CHANNELS 3 Zrotation Yrotation Xrotation
						JOINT left_elbow
						{
							OFFSET 0.254123 -0.072151 -0.042459
							CHANNELS 3 Zrotation Yrotation Xrotation
							JOINT left_wrist
							{
								OFFSET 0.251987 0.023221 -0.002472
								CHANNELS 3 Zrotation Yrotation Xrotation
								JOINT left_index_1
								{
									OFFSET 0.101902 -0.008688 0.019351
									CHANNELS 3 Zrotation Yrotation Xrotation
									JOINT left_index_2
									{
										OFFSET 0.030149 -0.011154 0.001151
										CHANNELS 3 Zrotation Yrotation Xrotation
										JOINT left_index_3
										{
											OFFSET 0.006504 -0.021577 -0.002433
											CHANNELS 3 Zrotation Yrotation Xrotation
											End Site
											{
												OFFSET 0.000000 0.000000 0.000000
											}
										}
									}
								}
								JOINT left_middle_1
								{
									OFFSET 0.109398 -0.006328 -0.003981
									CHANNELS 3 Zrotation Yrotation Xrotation
									JOINT left_middle_2
									{
										OFFSET 0.026472 -0.015218 -0.004641
										CHANNELS 3 Zrotation Yrotation Xrotation
										JOINT left_middle_3
										{
											OFFSET 0.005022 -0.023347 -0.001911
											CHANNELS 3 Zrotation Yrotation Xrotation
											End Site
											{
												OFFSET 0.000000 0.000000 0.000000
											}
										}
									}
								}
								JOINT left_pinky_1
								{
									OFFSET 0.084047 -0.014539 -0.043750
									CHANNELS 3 Zrotation Yrotation Xrotation
									JOINT left_pinky_2
									{
										OFFSET 0.012124 -0.014448 -0.005375
										CHANNELS 3 Zrotation Yrotation Xrotation
										JOINT left_pinky_3
										{
											OFFSET 0.003798 -0.018853 0.000167
											CHANNELS 3 Zrotation Yrotation Xrotation
											End Site
											{
												OFFSET 0.000000 0.000000 0.000000
											}
										}
									}
								}
								JOINT left_ring_1
								{
									OFFSET 0.097444 -0.009268 -0.027345
									CHANNELS 3 Zrotation Yrotation Xrotation
									JOINT left_ring_2
									{
										OFFSET 0.023561 -0.016057 -0.001895
										CHANNELS 3 Zrotation Yrotation Xrotation
										JOINT left_ring_3
										{
											OFFSET 0.004257 -0.023548 0.000814
											CHANNELS 3 Zrotation Yrotation Xrotation
											End Site
											{
												OFFSET 0.000000 0.000000 0.000000
											}
										}
									}
								}
								JOINT left_thumb_1
								{
									OFFSET 0.040636 -0.017977 0.025611
									CHANNELS 3 Zrotation Yrotation Xrotation
									JOINT left_thumb_2
									{
										OFFSET 0.021637 -0.017639 0.011623
										CHANNELS 3 Zrotation Yrotation Xrotation
										JOINT left_thumb_3
										{
											OFFSET 0.024002 -0.008356 0.006548
											CHANNELS 3 Zrotation Yrotation Xrotation
											End Site
											{
												OFFSET 0.000000 0.000000 0.000000
											}
										}
									}
								}
							}
						}
					}
				}
				JOINT right_collar
				{
					OFFSET -0.047695 0.084339 -0.013400
					CHANNELS 3 Zrotation Yrotation Xrotation
					JOINT right_shoulder
					{
						OFFSET -0.102578 0.053524 -0.012669
						CHANNELS 3 Zrotation Yrotation Xrotation
						JOINT right_elbow
						{
							OFFSET -0.271150 -0.036492 -0.026467
							CHANNELS 3 Zrotation Yrotation Xrotation
							JOINT right_wrist
							{
								OFFSET -0.249267 -0.004533 -0.015325
								CHANNELS 3 Zrotation Yrotation Xrotation
								JOINT right_index_1
								{
									OFFSET -0.099881 -0.011783 0.019600
									CHANNELS 3 Zrotation Yrotation Xrotation
									JOINT right_index_2
									{
										OFFSET -0.030148 -0.011154 0.001151
										CHANNELS 3 Zrotation Yrotation Xrotation
										JOINT right_index_3
										{
											OFFSET -0.006505 -0.021577 -0.002432
											CHANNELS 3 Zrotation Yrotation Xrotation
											End Site
											{
												OFFSET 0.000000 0.000000 0.000000
											}
										}
									}
								}
								JOINT right_middle_1
								{
									OFFSET -0.107376 -0.009422 -0.003734
									CHANNELS 3 Zrotation Yrotation Xrotation
									JOINT right_middle_2
									{
										OFFSET -0.026472 -0.015218 -0.004641
										CHANNELS 3 Zrotation Yrotation Xrotation
										JOINT right_middle_3
										{
											OFFSET -0.005022 -0.023347 -0.001911
											CHANNELS 3 Zrotation Yrotation Xrotation
											End Site
											{
												OFFSET 0.000000 0.000000 0.000000
											}
										}
									}
								}
								JOINT right_pinky_1
								{
									OFFSET -0.082027 -0.017634 -0.043503
									CHANNELS 3 Zrotation Yrotation Xrotation
									JOINT right_pinky_2
									{
										OFFSET -0.012123 -0.014448 -0.005374
										CHANNELS 3 Zrotation Yrotation Xrotation
										JOINT right_pinky_3
										{
											OFFSET -0.003798 -0.018852 0.000167
											CHANNELS 3 Zrotation Yrotation Xrotation
											End Site
											{
												OFFSET 0.000000 0.000000 0.000000
											}
										}
									}
								}
								JOINT right_ring_1
								{
									OFFSET -0.095423 -0.012362 -0.027099
									CHANNELS 3 Zrotation Yrotation Xrotation
									JOINT right_ring_2
									{
										OFFSET -0.023561 -0.016057 -0.001895
										CHANNELS 3 Zrotation Yrotation Xrotation
										JOINT right_ring_3
										{
											OFFSET -0.004257 -0.023548 0.000816
											CHANNELS 3 Zrotation Yrotation Xrotation
											End Site
											{
												OFFSET 0.000000 0.000000 0.000000
											}
										}
									}
								}
								JOINT right_thumb_1
								{
									OFFSET -0.038613 -0.021074 0.025861
									CHANNELS 3 Zrotation Yrotation Xrotation
									JOINT right_thumb_2
									{
										OFFSET -0.021636 -0.017639 0.011623
										CHANNELS 3 Zrotation Yrotation Xrotation
										JOINT right_thumb_3
										{
											OFFSET -0.024004 -0.008353 0.006547
											CHANNELS 3 Zrotation Yrotation Xrotation
											End Site
											{
												OFFSET 0.000000 0.000000 0.000000
											}
										}
									}
								}
							}
						}
					}
				}
			}
		}
	}
}
MOTION
Frames: 4
Frame Time: 0.050000
0.000027 0.945614 0.000587 3.349381 0.996744 -3.795080 0.515024 1.207061 8.626511 -3.598904 0.616606 -4.512240 -2.689766 -0.766547 5.426863 0.000000 0.000000 0.000000 -2.303865 -0.214007 2.983994 1.073452 0.121999 6.565857 -4.364768 -6.854303 -3.829965 0.000000 0.000000 0.000000 -1.594613 -0.532623 8.327927 -7.592470 0.422100 -13.267739 9.098220 -1.552622 23.578979 0.279164 2.206462 -15.048890 0.000000 0.000000 0.000000 -8.025510 -3.276163 1.104106 -33.524679 -0.939977 -6.141693 -14.796241 -41.009496 9.796707 -11.887241 1.071757 4.212308 -18.842628 2.639448 0.994465 -5.303542 3.490302 6.749760 0.000000 0.000000 0.000000 -15.642458 -2.804878 -4.091234 -19.931272 -0.643672 -6.753043 0.000000 0.000000 0.000000 6.685167 -11.891657 -13.211461 -43.297270 -11.971814 -19.906905 0.000000 0.000000 0.000000 -12.057558 -4.247721 -3.532092 -31.982859 -8.207159 -15.754897 0.000000 0.000000 0.000000 9.138467 27.114940 26.198925 -6.549449 -16.389511 -2.625221 0.000000 0.000000 0.000000 8.880963 -0.980145 -1.605293 36.851654 4.168268 -3.837532 7.931053 31.221012 1.216905 10.488095 -3.607360 17.335396 19.770018 -0.716003 -0.198970 2.248977 -6.957908 14.009680 0.000000 0.000000 0.000000 13.264388 4.730192 -4.968728 20.225224 -3.956314 -0.143401 0.000000 0.000000 0.000000 -14.218669 15.782089 -10.958059 46.180781 7.464047 -21.083973 0.000000 0.000000 0.000000 10.627374 2.729242 -2.648693 30.807184 3.799256 -15.805537 0.000000 0.000000 0.000000 -9.581917 -28.357712 28.896319 5.354953 19.848646 -3.991815 0.000000 0.000000 0.000000 
-0.000327 0.945453 -0.000732 3.344495 0.563887 -3.775680 0.620107 1.137446 8.173718 -3.840468 0.584309 -3.873054 -2.391467 -0.342153 5.307958 0.000000 0.000000 0.000000 -2.177055 -0.064616 1.455244 0.884954 0.214098 8.948188 -4.448022 -6.778317 -4.239831 0.000000 0.000000 0.000000 -1.675295 -0.554774 8.691499 -7.649427 0.362895 -13.495374 9.270164 -1.290393 23.517695 0.360482 2.165185 -14.800963 0.000000 0.000000 0.000000 -8.061336 -3.053094 0.974878 -33.301165 -0.939885 -6.102146 -15.266295 -41.034155 9.982375 -11.691322 1.178487 4.465260 -19.062824 2.207607 0.879280 -5.591829 3.468719 6.512132 0.000000 0.000000 0.000000 -15.969713 -3.215951 -4.333529 -19.719945 -0.706992 -6.938353 0.000000 0.000000 0.000000 6.032447 -12.218377 -13.789235 -44.151663 -11.503188 -18.984399 0.000000 0.000000 0.000000 -12.272696 -4.493668 -3.684434 -33.081742 -7.932186 -14.979158 0.000000 0.000000 0.000000 8.742792 26.834947 25.912720 -6.342073 -16.252070 -2.663250 0.000000 0.000000 0.000000 8.834807 -0.775059 -1.474588 36.865155 4.327719 -3.811186 7.764762 31.217575 1.178143 10.712469 -3.829280 17.190102 20.845333 -2.453675 0.174817 -2.128838 -4.413567 11.421110 0.000000 0.000000 0.000000 14.445097 2.878042 -4.323481 18.703716 -2.187617 -3.578219 0.000000 0.000000 0.000000 -9.359720 14.008654 -10.325324 38.774446 7.905946 -24.458998 0.000000 0.000000 0.000000 10.074726 3.290134 -2.875245 32.870658 1.757502 -10.410336 0.000000 0.000000 0.000000 -9.131612 -29.775615 30.347218 4.604861 20.412275 -4.622396 0.000000 0.000000 0.000000 
-0.001504 0.944808 -0.000732 3.385020 0.498148 -3.767989 0.903173 1.113232 8.180562 -4.296008 0.605259 -3.879062 -2.366143 -0.332348 5.266838 0.000000 0.000000 0.000000 -1.985101 0.048744 0.256785 0.663321 0.307705 11.024520 -4.665397 -7.009405 -4.674438 0.000000 0.000000 0.000000 -1.962297 -0.570229 9.110051 -7.633464 0.114426 -14.366895 9.517043 -1.113392 23.919944 0.430686 2.110120 -14.462806 0.000000 0.000000 0.000000 -7.959316 -3.337829 1.135209 -33.328362 -0.541287 -6.133182 -15.201876 -41.406664 10.046907 -11.691806 1.806757 3.995479 -19.069890 1.987864 0.848891 -5.092339 4.131329 8.483535 0.000000 0.000000 0.000000 -15.604438 -3.520867 -4.401200 -20.176663 1.506042 -1.781903 0.000000 0.000000 0.000000 6.928895 -12.208866 -13.729044 -44.306172 -11.381608 -18.552255 0.000000 0.000000 0.000000 -11.835714 -4.718504 -3.790059 -32.964997 -7.834944 -14.555070 0.000000 0.000000 0.000000 8.852062 27.119991 26.177773 -6.408048 -16.640220 -2.765101 0.000000 0.000000 0.000000 8.832106 -0.905564 -1.534536 37.158643 4.317429 -3.844295 7.584475 30.703227 1.123133 10.984037 -3.124767 15.475812 19.747093 -2.816014 0.453066 3.062654 -6.185394 12.181895 0.000000 0.000000 0.000000 16.063277 1.300365 -3.899696 16.850392 -2.343162 -1.872106 0.000000 0.000000 0.000000 -13.551211 14.889250 -10.506941 49.275198 8.128633 -19.921366 0.000000 0.000000 0.000000 11.466370 1.718320 -2.216673 32.746628 3.411815 -13.097236 0.000000 0.000000 0.000000 -10.355375 -30.025213 30.796301 4.899721 20.470366 -4.431317 0.000000 0.000000 0.000000 
-0.003624 0.944163 0.000587 3.517081 0.501726 -3.776022 1.041266 1.077137 8.005690 -4.544102 0.583265 -3.392796 -2.268240 -0.306313 5.070077 0.000000 0.000000 0.000000 -1.854319 0.102281 -0.313342 0.470699 0.374695 12.207482 -4.846428 -7.199088 -5.060546 0.000000 0.000000 0.000000 -2.398553 -0.538848 8.699304 -7.472460 0.285880 -13.500350 9.355851 -1.735011 23.868683 0.592129 2.143966 -14.748253 0.000000 0.000000 0.000000 -7.884338 -2.924227 0.958215 -33.448482 -0.675245 -6.113632 -14.486725 -40.824325 9.671967 -12.521438 0.817445 4.267737 -17.212690 2.982337 1.096833 -7.541016 4.707403 8.462537 0.000000 0.000000 0.000000 -15.121360 -1.463068 -3.418824 -21.740900 0.712509 -3.984982 0.000000 0.000000 0.000000 7.637391 -11.686407 -12.686903 -44.841505 -12.714271 -20.612124 0.000000 0.000000 0.000000 -14.997824 -2.687722 -2.859167 -29.293708 -9.352779 -19.110593 0.000000 0.000000 0.000000 10.351397 27.463854 26.623512 -6.701721 -16.992220 -2.727680 0.000000 0.000000 0.000000 8.818137 -0.361001 -1.253510 37.502854 4.616300 -3.868494 7.168156 30.936949 1.016203 11.242714 -3.401119 16.723271 19.782465 -3.338812 0.504848 2.500385 -4.497446 8.587070 0.000000 0.000000 0.000000 15.013822 3.146247 -4.549678 18.448398 -4.097491 1.206992 0.000000 0.000000 0.000000 -11.055709 13.415153 -8.991863 46.605293 5.988555 -18.366478 0.000000 0.000000 0.000000 10.732758 3.623425 -3.123936 32.708337 1.055780 -8.499252 0.000000 0.000000 0.000000 -7.246329 -29.653581 30.095397 1.163207 17.684167 -5.292686 0.000000 0.000000 0.000000 
